<?xml version="1.0" encoding="UTF-8"?>
<svg id="Layer_2" data-name="Layer 2" xmlns="http://www.w3.org/2000/svg" viewBox="0 0 325.92 119">
  <defs>
    <style>
      .cls-1 {
        fill: #e0003a;
      }

      .cls-2 {
        fill: #fff;
      }
    </style>
  </defs>
  <g id="Layer_1-2" data-name="Layer 1">
    <g>
      <g>
        <path class="cls-2" d="M72.68,8.93h15.48c.12,0,.31-.38.08-.47l-19.25-6.37-19.1,6.31-.33.22.04.31h15.68v2.03h-21.52v-2.46L69.06,0l25.15,8.19v2.65l-.12.12h-21.29l-.12-.12v-1.91Z"/>
        <path class="cls-2" d="M33.85,18.44h-13.1v-1.95h11.23v-1.87H0v-2.69l16.96-5.72,16.88,5.8v6.43ZM4.41,12.75h25.38l-.05-.4-12.78-4.17-12.44,4.14-.23.16c-.04.09.03.24.11.26Z"/>
        <path class="cls-2" d="M137.8,11.82v2.81h-31.9v1.87h11.23v1.95h-13.1v-6.43l16.88-5.8,16.88,5.6ZM133.59,12.83v-.34s-12.67-4.3-12.67-4.3l-12.82,4.3v.34s25.49,0,25.49,0Z"/>
        <polygon class="cls-2" points="43.67 20.24 43.67 21.95 32.05 21.95 32.05 52 31.93 52.12 1.95 52.12 1.95 50.09 30.1 50.09 30.1 20.24 43.67 20.24"/>
        <polygon class="cls-2" points="107.78 20.24 107.78 50.09 135.93 50.09 135.93 52.12 105.94 52.12 105.83 52 105.83 21.95 94.21 21.95 94.21 20.24 107.78 20.24"/>
        <rect class="cls-2" x="43.75" y="50.09" width="50.46" height="2.03"/>
        <polygon class="cls-2" points="92.41 12.75 92.41 48.26 92.3 48.38 90.54 48.38 90.54 14.74 90.42 14.62 72.68 14.62 72.68 12.75 92.41 12.75"/>
        <polygon class="cls-2" points="65.27 12.75 65.27 14.62 47.49 14.62 47.49 48.26 47.38 48.38 45.62 48.38 45.62 12.75 65.27 12.75"/>
        <polygon class="cls-2" points="135.93 16.49 135.93 48.38 133.98 48.38 133.98 18.56 133.86 18.44 124.62 18.44 124.62 16.49 135.93 16.49"/>
        <polygon class="cls-2" points="13.26 16.49 13.26 18.44 3.9 18.44 3.9 48.26 3.78 48.38 1.95 48.38 1.95 16.49 13.26 16.49"/>
        <polygon class="cls-2" points="83.44 16.49 83.44 48.3 81.61 48.3 81.49 48.18 81.49 16.49 83.44 16.49"/>
        <rect class="cls-2" x="54.43" y="16.49" width="1.87" height="31.81"/>
        <rect class="cls-2" x="63.32" y="16.49" width="1.87" height="31.81"/>
        <rect class="cls-2" x="72.68" y="16.49" width="1.87" height="31.81"/>
        <polygon class="cls-2" points="13.26 20.16 13.26 48.38 11.42 48.38 11.31 48.26 11.31 20.16 13.26 20.16"/>
        <rect class="cls-2" x="20.74" y="20.16" width="1.87" height="28.22"/>
        <rect class="cls-2" x="115.26" y="20.16" width="1.87" height="28.22"/>
        <rect class="cls-2" x="124.62" y="20.16" width="1.87" height="28.22"/>
        <path class="cls-2" d="M50.89,77.1c1.72-.23,2.34-2.19.92-3.26-1.51-1.14-3.94-.29-3.85,1.78l-1.32-.24c-.12-1.92,1.58-3.27,3.39-3.41,2.6-.2,5,2.39,3.57,4.9l-.81.82c1.24.64,1.83,1.27,1.83,2.73,0,2.15-1.41,3.32-3.44,3.62-2.74.39-5.4-.92-5.33-3.97l1.4-.16c-.1,2.1,1.46,2.97,3.4,2.81,1.6-.14,3.21-1.47,2.31-3.18-.25-.47-1.19-1.04-1.69-1.04h-5.34v-1.4h4.95Z"/>
        <path class="cls-2" d="M2.57,80.41c.28,2.35,3.22,2.96,4.91,1.72l-1.63-.9.47-1.32c.11-.03.19.02.29.06.29.12,1.31.92,1.48.94s.34-.48.34-.58v-7.95l.12-.12h1.36v8.07c0,.38-.41,1.17-.55,1.55l1.56.95-.51,1.28c-.76-.13-1.28-.67-1.88-1.09-2.01,1.61-5.77,1.48-6.98-1.05-.15-.3-.45-1.19-.45-1.5v-8.22h1.36l.12.12v8.03Z"/>
        <path class="cls-2" d="M12.24,75.89c.27-2.94,2.69-4.32,5.47-3.84,4.86.84,3.93,7.82.55,10.02-.18.12-.46.16-.57.33h3.35v1.48h-8.81v-2.57h1.64v1.17c2.7-.02,5.1-2.26,5.53-4.88.27-1.67.07-3.85-1.92-4.22-1.66-.3-3.05.32-3.48,2.02-.12.5-.1.97-.23,1.45l-1.54.56c.03-.49-.04-1.03,0-1.52Z"/>
        <rect class="cls-2" x="50.14" y="20.24" width="1.56" height="28.07"/>
        <polygon class="cls-2" points="78.92 48.3 77.36 48.3 77.36 20.24 78.8 20.24 78.92 20.35 78.92 48.3"/>
        <polygon class="cls-2" points="87.73 48.3 86.17 48.3 86.17 20.24 87.62 20.24 87.73 20.35 87.73 48.3"/>
        <path class="cls-2" d="M90.62,72.27v3.2h1.79v1.4h-1.79v3.55c0,1.8-2.16,3.5-3.86,3.63-3.57.26-5.66-2.57-4.62-5.94.41-1.32,1.96-2.63,3.37-2.63h3.55v-3.2h1.56ZM89.06,76.87h-3.08c-.61,0-1.74.59-2.1,1.1-.78,1.08-.7,3.49.48,4.27,1.04.69,3.33.73,4.16-.34.16-.21.55-1.09.55-1.33v-3.7Z"/>
        <path class="cls-2" d="M36.03,72.27v7.6c0,.54.29,1.51.62,1.95.91,1.21,3.16,1.08,4.37.43.03-.14-.04-.15-.13-.22-.2-.15-1.38-.71-1.42-.84l.46-1.24,1.75.9c.1-.02.27-.72.27-.82v-7.76h1.4v7.84c0,.15-.17.76-.23.94-.1.3-.24.58-.39.85l1.55.95-.38,1.2c-.71-.15-1.25-.63-1.84-1-2.37,1.77-6.3,1.41-7.2-1.77-.07-.23-.24-.97-.24-1.17v-7.84h1.4Z"/>
        <path class="cls-2" d="M31.35,79.67h1.87v1.4h-1.75l-.12.12v2.61h-1.4v-2.73h-3.7c-1.32,0-2.82-1.5-3.24-2.69-1.35-3.86,1.42-7.32,5.54-6.24,3.51.92,2.74,4.75,2.81,7.52ZM29.95,79.67v-3.78c0-.67-.47-1.7-1.02-2.1-.98-.71-3.09-.64-3.97.23-.99.98-1.09,4.13,0,5.06.28.24,1.16.59,1.51.59h3.47Z"/>
        <rect class="cls-2" x="59.11" y="20.24" width="1.48" height="28.07"/>
        <path class="cls-2" d="M124.7,83.81h-1.4v-7.76c0-.55-.4-1.65-.81-2.04-.96-.91-3.37-.93-4.26.09-.25.29-.63,1.2-.63,1.56v8.15h-1.56v-7.99c0-.41.38-1.52.58-1.91,1.74-3.27,8.07-2.31,8.07,2.07v7.84Z"/>
        <path class="cls-2" d="M102.39,83.81h-1.4v-7.76c0-.48-.34-1.46-.66-1.83-.86-.98-3.15-1.06-4.17-.35-.54.38-1.02,1.38-1.02,2.02v7.91h-1.4v-7.99c0-.33.26-1.21.4-1.55,1.53-3.75,8.26-2.71,8.26,1.63v7.91Z"/>
        <path class="cls-2" d="M134.99,72.27v10.13h1.79v1.4h-3.35v-3.66c-.59.48-1.3.79-2.07.86-3.03.27-4.72-1.34-4.88-4.32-.02-.36-.07-.94.12-1.21h1.44v1.75c0,.4.3,1.31.55,1.64.94,1.25,3.71,1.11,4.48-.28.08-.14.36-.86.36-.97v-5.34h1.56Z"/>
        <path class="cls-2" d="M112.84,82.4h1.87v1.4h-3.24l-.12-.12v-8.03c0-.24-.36-1.14-.51-1.36-.75-1.06-2.65-1.18-3.76-.73-1.59.65-1.44,2.56-1.5,4h-1.4c-.08-2.16.2-4.59,2.58-5.34,2.69-.84,5.78.29,6.06,3.37l.02,6.8Z"/>
        <path class="cls-2" d="M69.17,72.27v7.91c0,.48.43,1.52.78,1.87.99.99,3.54.92,4.44-.16.31-.37.63-1.24.63-1.71v-1.68h1.4v1.99c0,1.37-1.09,2.72-2.32,3.22-2.82,1.15-6.02-.16-6.33-3.38v-6.66h-1.96v-1.4h3.35Z"/>
        <path class="cls-2" d="M58.57,72.27v4.05c1.96-1.76,5.61-1.41,6.61,1.23.11.29.33,1.03.33,1.31v1.91h-1.4v-1.44c0-2.29-2.35-3.38-4.28-2.41-.64.32-1.26,1.21-1.26,1.94v5.03h-1.4v-11.62h1.4Z"/>
        <polygon class="cls-2" points="99.43 25.77 99.43 42.45 97.87 42.45 97.87 25.89 97.99 25.77 99.43 25.77"/>
        <polygon class="cls-2" points="17.78 42.45 16.22 42.45 16.22 25.77 17.66 25.77 17.78 25.89 17.78 42.45"/>
        <rect class="cls-2" x="38.52" y="25.77" width="1.48" height="16.68"/>
        <rect class="cls-2" x="120.1" y="25.77" width="1.48" height="16.68"/>
        <rect class="cls-2" x="68.08" y="35.2" width="1.79" height="13.1"/>
        <rect class="cls-2" x="68.08" y="16.49" width="1.79" height="11.85"/>
        <path class="cls-2" d="M30.41,67.4c.11.5,1.7.79,1.8-.31.04-.47-.1-3.24.07-3.36l.94-.03v.7c.62-.72,1.87-.96,2.49-.12.09.13.31.58.31.7v3.55h-.94v-3.47c0-.41-.48-.71-.88-.65s-1,.66-1,1.04v3.16h-.78s0-.47,0-.47c-.67.58-2.21.68-2.67-.18-.15-.28-.2-.84-.22-1.18-.06-.99.02-2.03.04-3.01.08-.12.72-.13.82.04v3.59Z"/>
        <path class="cls-2" d="M88.9,63.78v3.16s.1.46.11.51c.26.71,1.39.54,1.75-.05.03-.05.17-.36.17-.38v-3.24h.78v3.39c0,.44.54.78.97.74.49-.05,1.06-.64,1.06-1.13v-3h.78v6.7h-.78v-2.49c-.77.78-2.09.88-2.69-.15-.56.88-2.4,1.13-2.77-.04-.36-1.1-.04-2.66-.15-3.83l.13-.18h.65Z"/>
        <path class="cls-2" d="M117.06,63.7h.7s0,.86,0,.86c1.24-1.32,3.98-1.03,3.98,1.09h.7s0,.7,0,.7h-.7c.06.78-.05,1.65-.84,2.01-1.3.58-2.85-.54-2.19-1.96.36-.78,1.51-.79,2.25-.75-.12-1.24-1.61-1.5-2.5-.82-.18.14-.62.64-.62.86v4.79h-.78v-6.78ZM120.96,66.35c-.44.03-1.35-.16-1.52.39-.37,1.17,1.32,1.55,1.51.41.04-.26,0-.53.02-.8Z"/>
        <path class="cls-2" d="M17.7,63.7v3.39s.16.37.2.43c.38.52,1.23.35,1.6-.11.12-.15.31-.61.31-.78v-2.92h.78v3.47c0,.26.42.6.68.64,1.94.33,1.2-3.04,1.35-4.11.28.04.65-.1.86.12v4.72h-.78s0-.7,0-.7l-.68.53c-.7.31-1.72.2-2.01-.6-.16,0-.36.32-.51.42-.69.48-1.89.53-2.35-.29-.05-.09-.22-.5-.22-.56v-3.63h.78Z"/>
        <path class="cls-2" d="M8.11,63.7v3.47c0,.08.23.46.33.53.6.38,1.38.01,1.58-.65.02-.06.11-.56.11-.59v-2.77h.65s.12.13.12.13c.15,1.01-.17,2.44.03,3.4s1.68.7,1.9-.25c.13-.57-.08-2.99.07-3.21l.82-.07v4.83h-.78s0-.7,0-.7c-.12,0-.1.15-.19.24-.72.63-2.09.69-2.5-.31-.27.19-.47.47-.79.62-.68.31-1.66.18-1.99-.56-.03-.06-.14-.38-.14-.4v-3.7h.78Z"/>
        <path class="cls-2" d="M101.54,63.7v3.47c0,.16.33.54.49.6.6.24,1.24-.12,1.43-.72.02-.06.11-.56.11-.59v-2.77l.71.03.07.67c.12,0,.1-.15.19-.24.5-.44,1.35-.56,1.94-.22,1.11.65.53,3.48.68,4.59h-.86v-3.47c0-.35-.57-.61-.89-.59-.36.02-1.06.46-1.06.82v3.24h-.78s0-.62,0-.62l-.57.41c-.56.32-1.42.3-1.88-.18-.11-.12-.36-.59-.36-.73v-3.7h.78Z"/>
        <path class="cls-2" d="M125.79,63.7v3.55c0,.08.23.38.33.45.47.31,1.12.13,1.42-.33.04-.06.2-.39.2-.43v-3.12l.13-.1c.1-.02.2-.02.3-.02.16,0,.33-.03.43.12v3.43c0,.29.4.55.67.58,1.92.21,1.1-2.91,1.29-4l.12-.12h.65s0,4.82,0,4.82h-.7s0-.7,0-.7c-.69.84-2.2,1.04-2.69-.08-.67.6-1.2.99-2.14.66-.32-.11-.78-.6-.78-.93v-3.78h.78Z"/>
        <path class="cls-2" d="M65.74,63.78h.78v3.31s.12.36.14.41c.28.55,1.07.5,1.49.13.11-.09.4-.67.4-.77v-3.08h.78v4.68h-.7s-.04-.55-.04-.55c-.71.87-2.13.98-2.73-.08-.6.91-2.45,1.12-2.79-.09-.32-1.1-.06-2.74-.1-3.89.08-.12.72-.13.82.04v3.43c0,.08.23.38.33.45.37.25.96.15,1.27-.17.08-.09.35-.58.35-.67v-3.16Z"/>
        <path class="cls-2" d="M37.9,63.78v3.39s.16.37.2.43c.42.58,1.36.33,1.65-.29.03-.06.18-.5.18-.53v-3h.78v3.47c0,.06.22.45.29.51.43.33,1.18.11,1.46-.32.06-.1.28-.66.28-.74v-2.92h.78v4.68h-.7s0-.51,0-.51l-.15-.04c-.48.92-2.16.93-2.58-.08h-.15c-.47.94-2.11,1.05-2.62.08-.04-.07-.19-.47-.19-.51v-3.63h.78Z"/>
        <path class="cls-2" d="M81.34,63.78v3.31c0,.51.49.85.97.82.52-.03,1.06-.55,1.06-1.06v-3.08h.78v3.47c0,.61.93.79,1.43.49.27-.16.6-.75.6-1.04v-2.92h.78v4.68h-.7s-.04-.55-.04-.55c-.55.63-1.43.91-2.2.48-.24-.13-.47-.56-.61-.56-.51.93-2.21,1.08-2.68.03-.03-.08-.16-.49-.16-.54v-3.55h.78Z"/>
        <path class="cls-2" d="M68.69,8.09c2.57-.35,2.97,3.47.6,3.79-2.59.36-3.03-3.46-.6-3.79Z"/>
        <path class="cls-2" d="M50.61,62.14v2.34c.68-.83,2.37-.94,2.87.14.03.07.18.5.18.53v3.31h-.78v-3c0-.12-.24-.65-.35-.74-.36-.31-1.19-.21-1.53.12-.13.13-.39.63-.39.78v4.79h-.78v-8.26h.78Z"/>
        <path class="cls-2" d="M96.55,63.78h3.28v.7h-3.28v2.61c0,.05.18.4.23.47.36.47,1,.42,1.46.13.67-.42.55-1.58.57-2.28h.78v3.04h-.78s-.04-.55-.04-.55c-.62.79-1.99.98-2.65.16-.09-.11-.35-.57-.35-.66v-5.42c.26.03.59-.1.78.12v1.68Z"/>
        <path class="cls-2" d="M133.43,62.14v4.87c0,.06.25.56.31.62.46.4,1.39.2,1.7-.32.03-.05.17-.36.17-.38v-3.12l.13-.1c.1-.02.2-.02.3-.02.16,0,.33-.03.43.12v4.79h-.78s0-.78,0-.78c-.62.74-1.97,1-2.68.23-.09-.1-.36-.64-.36-.73v-4.48h-.94s0-.7,0-.7h1.72Z"/>
        <path class="cls-2" d="M71.43,67.17c.14.85,1.32.93,1.85.4.07-.07.34-.57.34-.64v-3.16h.78v4.68h-.7s-.04-.62-.04-.62c-.45.82-1.89,1-2.57.39-.1-.09-.43-.63-.43-.74v-4.64h-.94s0-.86,0-.86h1.6l.12.12v5.07Z"/>
        <path class="cls-2" d="M45.54,62.14v4.79c0,.12.2.6.31.71.49.49,1.35.29,1.71-.25.04-.07.25-.5.25-.53v-3.16h.78v4.91h-.7s0-.78,0-.78c-.61.69-1.39.97-2.28.61-.38-.15-.83-.8-.83-1.19v-4.4h-.86s0-.7,0-.7h1.64Z"/>
        <path class="cls-2" d="M61.53,68.61h-.86v-1.99c0-.08-.24-.46-.32-.54-.7-.68-2.37-.2-3.27-.39l-.07-.75h2.38c.08,0,.58-.26.67-.35.45-.42.44-1.2-.09-1.56-.06-.04-.39-.2-.43-.2h-2.22v-.65c.04-.1.11-.11.19-.13.36-.07,1.54-.03,1.94,0,1.85.19,2.55,1.96,1.06,3.15.34.16,1.01.89,1.01,1.25v2.14Z"/>
        <path class="cls-2" d="M79.39,68.61h-.78v-3.47s-.16-.37-.2-.43c-.41-.57-1.47-.38-1.82.2-.03.05-.17.36-.17.38v5.11h-.78v-6.63h.7s0,.62,0,.62c.59-.69,1.64-.96,2.44-.45.21.13.6.66.6.88v3.78Z"/>
        <path class="cls-2" d="M1.87,62.84v-.65c.04-.1.11-.11.19-.13.53-.1,2.04-.01,2.56.17,1.31.48,1.61,2.25.37,2.98.36.12,1.01.9,1.01,1.25v2.14h-.78v-1.6s-.11-.5-.14-.56c-.47-1.19-2.56-.56-3.56-.73l-.12-.12v-.65s2.45,0,2.45,0c.1,0,.61-.22.7-.31.44-.4.36-1.27-.12-1.6-.06-.04-.39-.2-.43-.2H1.87Z"/>
        <path class="cls-2" d="M25.35,63.7v3.24c0,.08.19.58.27.67.45.54,1.38.31,1.72-.24.03-.05.2-.47.2-.5v-3.16h.94v4.83h-.78s0-.55,0-.55c-.74.81-2.44.89-2.94-.21-.03-.07-.18-.5-.18-.53v-3.55h.78Z"/>
        <path class="cls-2" d="M108.4,63.78h.7s0,.7,0,.7c.65-.85,2.28-1.05,2.87-.03.06.11.25.67.25.77v3.31h-.78v-3c0-.13-.21-.73-.31-.84-.3-.34-1.13-.27-1.48-.01-.15.11-.47.62-.47.77v3.08h-.78v-4.76Z"/>
        <path class="cls-2" d="M80.01,18.52h-3.82c.04-2.69,3.79-2.69,3.82,0Z"/>
        <path class="cls-2" d="M88.9,18.52h-3.82c.02-2.69,3.77-2.69,3.82,0Z"/>
        <path class="cls-2" d="M61.76,18.52h-3.82c.05-2.69,3.78-2.7,3.82,0Z"/>
        <path class="cls-2" d="M52.87,18.52h-3.9c.19-2.69,3.7-2.69,3.9,0Z"/>
        <path class="cls-2" d="M15.83,63.7v5.96s-.19.34-.23.39c-.36.41-1.05.38-1.56.43v-.66c.39-.06.8-.09,1-.49l.02-5.44.13-.18h.65Z"/>
        <path class="cls-2" d="M123.84,63.7v5.89s-.16.38-.2.43c-.27.36-1.03.42-1.44.39v-.62c.26.1.86-.16.86-.43v-5.65h.78Z"/>
        <path class="cls-2" d="M114.17,67.83h2.18v.7h-2.96v-4.83c.26.03.59-.1.78.12v4.01Z"/>
      </g>
      <g>
        <path class="cls-2" d="M216.15,106.28c.93,0,1.57-.3,1.91-.89s.52-1.64.52-3.15v-45.05h16.52v42.79c0,8.48-1.15,13.79-3.45,15.93-2.3,2.06-7.45,3.09-15.45,3.09s-13.63-1.03-15.93-3.09c-2.22-2.22-3.33-7.53-3.33-15.93v-42.79h16.52v45.05c0,2.69.89,4.04,2.67,4.04Z"/>
        <path class="cls-2" d="M261.26,62.9c.87-1.98,1.5-3.8,1.9-5.47h17c-.4,3.17-1.27,6.3-2.62,9.39l-17.12,39.11h19.97v13.07h-38.04v-13.07l18.9-43.03Z"/>
        <path class="cls-2" d="M291.21,115.91c-2.3-2.3-3.45-7.61-3.45-15.93v-43.27h16.52v7.25c2.22-2.38,5.23-3.57,9.03-3.57,8.4,0,12.6,5.67,12.6,17v22.58c0,8.48-1.19,13.79-3.57,15.93-2.3,2.06-7.37,3.09-15.21,3.09s-13.47-1.03-15.93-3.09ZM309.4,78.83c0-2.69-.87-4.04-2.62-4.04-.95,0-1.6.26-1.96.77-.36.52-.54,1.6-.54,3.27v23.65c0,1.59.2,2.66.59,3.21.4.56,1.03.83,1.9.83.95,0,1.62-.3,2.02-.89.4-.59.59-1.64.59-3.15v-23.65Z"/>
      </g>
      <path class="cls-2" d="M189.59,24.58v12.24h-16.52v-14.5c0-1.58-.2-2.67-.58-3.27-.39-.59-1.04-.89-1.97-.89-1.63,0-2.44,1.39-2.44,4.16v14.5h-16.52v-12.24c0-8.64,1.14-13.98,3.42-16.05,2.2-2.14,7.36-3.21,15.47-3.21s13.54,1.19,15.83,3.57c2.2,2.22,3.31,7.45,3.31,15.69Z"/>
      <path class="cls-2" d="M196.96,24.58c0-8.56,1.15-13.91,3.45-16.05,2.22-2.14,7.41-3.21,15.57-3.21s13.47,1.11,15.69,3.33c2.3,2.3,3.45,7.61,3.45,15.93v12.12h-16.52v-14.38c0-2.77-.89-4.16-2.67-4.16-1.63,0-2.44,1.39-2.44,4.16v14.38h-16.52v-12.12Z"/>
      <path class="cls-2" d="M280.4,24.58v12.24h-16.52v-14.5c0-1.58-.2-2.67-.58-3.27-.39-.59-1.04-.89-1.97-.89-1.63,0-2.44,1.39-2.44,4.16v14.5h-16.52v-12.24c0-8.64,1.14-13.98,3.42-16.05,2.2-2.14,7.36-3.21,15.47-3.21s13.54,1.19,15.83,3.57c2.2,2.22,3.31,7.45,3.31,15.69Z"/>
      <path class="cls-2" d="M325.92,24.58v12.24h-16.52v-14.62c0-1.5-.2-2.56-.59-3.15-.4-.59-1.07-.89-2.02-.89-.87,0-1.51.28-1.9.83-.4.56-.59,1.63-.59,3.21v14.62h-16.52v-12.24c0-8.32,1.19-13.63,3.57-15.93,2.22-2.22,7.49-3.33,15.81-3.33s13,1.11,15.21,3.33c2.38,2.3,3.57,7.61,3.57,15.93Z"/>
      <path class="cls-1" d="M151.58,59.37c28.86,13.58,46.63,39.01,52.43,59.64h1.31c12.62-43.84,37.24-87.52,68.06-112.56-.24-.38-.49-.75-.74-1.12-3.35.9-6.99,2.74-10.78,5.28-22.72,15.23-51.01,55.58-57.55,69.5-15.69-17.33-42.52-22.21-51.17-22.21-.62,0-1.15.03-1.57.07"/>
      <g>
        <path class="cls-2" d="M151.56,43.71c0-1.03.22-1.92.66-2.65.44-.73,1.07-1.29,1.87-1.66.8-.38,1.74-.56,2.81-.56s2.01.19,2.81.56c.8.37,1.42.93,1.85,1.66.43.73.65,1.62.65,2.66v3.48h-3.26v-3.48c0-.82-.17-1.42-.51-1.8s-.85-.57-1.53-.57c-1.34,0-2.03.74-2.07,2.22v7.3h7.88v2.42h-11.15v-9.58Z"/>
        <path class="cls-2" d="M176.66,45.11v3.48c0,1.04-.22,1.93-.65,2.66-.43.73-1.05,1.28-1.85,1.66-.8.38-1.73.56-2.81.56s-2.01-.19-2.81-.56c-.8-.37-1.42-.93-1.87-1.66-.44-.73-.66-1.62-.66-2.65v-7.15h-2.68v-2.42h5.95v9.73c.04,1.48.73,2.22,2.07,2.22.68,0,1.19-.19,1.53-.57s.51-.98.51-1.8v-3.48h3.26Z"/>
        <path class="cls-2" d="M181.61,48.72c0,.74.2,1.31.59,1.71s.94.59,1.62.59c1.41,0,2.11-.57,2.11-1.7,0-.32-.07-.6-.2-.85s-.37-.46-.7-.66c-.33-.2-.79-.39-1.38-.57-1.15-.36-2.07-.72-2.75-1.07s-1.19-.8-1.55-1.33c-.35-.53-.53-1.21-.53-2.03s.22-1.56.67-2.16,1.06-1.05,1.84-1.36c.77-.31,1.65-.46,2.62-.46s1.84.17,2.62.52c.78.34,1.39.85,1.84,1.51.45.66.67,1.44.67,2.36h-3.24c0-.61-.16-1.09-.47-1.42-.32-.33-.8-.5-1.44-.5-.57,0-1.02.14-1.35.42-.33.28-.5.65-.5,1.1,0,.35.11.64.33.86s.51.42.87.57.86.31,1.49.49c1.01.29,1.83.63,2.48,1,.64.38,1.13.85,1.46,1.43s.5,1.29.5,2.13-.22,1.61-.67,2.23c-.45.63-1.07,1.11-1.88,1.44-.81.33-1.75.5-2.82.5s-2.03-.19-2.86-.56c-.83-.37-1.47-.92-1.93-1.64-.46-.72-.69-1.57-.69-2.56h3.27Z"/>
        <path class="cls-2" d="M197.92,41.91c-.34-.38-.85-.57-1.53-.57-1.34,0-2.03.74-2.07,2.22v9.73h-3.27v-9.58c0-1.03.22-1.92.66-2.65.44-.73,1.07-1.29,1.87-1.66.8-.38,1.74-.56,2.81-.56s2.01.19,2.81.56c.8.37,1.42.93,1.85,1.66.43.73.65,1.62.65,2.66v3.48h-3.26v-3.48c0-.82-.17-1.42-.51-1.8Z"/>
        <path class="cls-2" d="M210.63,41.91c-.34-.38-.85-.57-1.53-.57-1.34,0-2.03.74-2.07,2.22v9.73h-3.27v-9.58c0-1.03.22-1.92.66-2.65.44-.73,1.07-1.29,1.87-1.66.8-.38,1.74-.56,2.81-.56s2.01.19,2.81.56c.8.37,1.42.93,1.85,1.66.43.73.65,1.62.65,2.66v9.58h-3.26v-9.58c0-.82-.17-1.42-.51-1.8Z"/>
        <path class="cls-2" d="M222.36,47.36h-2.68v5.93h-3.27v-14.27h3.27v5.92h2.68v2.42Z"/>
        <path class="cls-2" d="M251.72,47.07c.41.58.62,1.27.62,2.09,0,.95-.24,1.74-.72,2.39s-1.15,1.13-2,1.44c-.85.32-1.85.48-2.98.48-1.07,0-2.04-.18-2.9-.53-.86-.35-1.55-.87-2.05-1.54s-.75-1.47-.75-2.39h3.27c0,.37.1.71.29,1s.48.53.85.7c.37.17.8.26,1.3.26,1.62,0,2.43-.62,2.43-1.87,0-.4-.11-.74-.32-1.04-.21-.29-.49-.52-.85-.67-.36-.15-.75-.23-1.17-.23h-9.02v2.03c0,1.44-.37,2.51-1.12,3.22-.75.71-1.9,1.06-3.46,1.06-1.02,0-1.88-.19-2.59-.59-.71-.39-1.24-.92-1.6-1.59-.36-.67-.53-1.42-.53-2.25v-.24c0-1.36.4-2.39,1.21-3.09s1.98-1.06,3.51-1.06h1.31v-.3c0-.58-.18-1.09-.53-1.55s-.83-.82-1.43-1.08-1.25-.39-1.96-.39c-.76,0-1.44.13-2.03.38-.59.25-1.05.59-1.38,1.03-.33.44-.5.92-.5,1.46v9.08h-3.27v-8.93c0-1.03.26-1.96.78-2.8s1.32-1.5,2.4-1.99c1.08-.49,2.41-.74,4-.74s2.85.25,3.93.74,1.89,1.16,2.43,2,.81,1.77.81,2.79v.3h9.12c.55,0,1-.15,1.36-.44s.53-.7.53-1.22-.19-.94-.56-1.23c-.38-.29-.88-.44-1.52-.44-.42,0-.78.06-1.09.19s-.55.3-.72.52-.26.47-.26.75h-3.25c0-.79.23-1.49.68-2.09.45-.6,1.08-1.06,1.89-1.39.81-.33,1.73-.49,2.75-.49s1.94.17,2.75.5c.81.33,1.44.81,1.9,1.43s.69,1.35.69,2.18c0,.71-.17,1.31-.5,1.83-.33.51-.82.88-1.45,1.1.72.23,1.28.63,1.7,1.21ZM234.44,47.17h-1.31c-.47,0-.83.16-1.08.47-.25.31-.37.77-.37,1.38s.13,1.05.38,1.37.61.47,1.07.47.8-.13,1-.39.31-.68.31-1.28v-2.03Z"/>
        <path class="cls-2" d="M260.9,41.91c-.34-.38-.85-.57-1.53-.57-1.34,0-2.03.74-2.07,2.22v9.73h-3.27v-9.58c0-1.03.22-1.92.66-2.65.44-.73,1.07-1.29,1.87-1.66.8-.38,1.74-.56,2.81-.56s2.01.19,2.81.56c.8.37,1.42.93,1.85,1.66.43.73.65,1.62.65,2.66v9.58h-3.26v-9.58c0-.82-.17-1.42-.51-1.8Z"/>
        <path class="cls-2" d="M272.63,47.36h-2.68v5.93h-3.27v-14.27h3.27v5.92h2.68v2.42Z"/>
        <path class="cls-2" d="M286.04,45.11v3.48c0,1.04-.22,1.93-.65,2.66-.43.73-1.05,1.28-1.85,1.66-.8.38-1.73.56-2.81.56s-2.01-.19-2.81-.56c-.8-.37-1.42-.93-1.87-1.66-.44-.73-.66-1.62-.66-2.65v-7.15h-2.68v-2.42h5.95v9.73c.04,1.48.73,2.22,2.07,2.22.68,0,1.19-.19,1.53-.57s.51-.98.51-1.8v-3.48h3.26Z"/>
        <path class="cls-2" d="M300.54,45.11v3.48c0,1.04-.22,1.93-.65,2.66-.43.73-1.05,1.28-1.85,1.66-.8.38-1.73.56-2.81.56s-2.01-.19-2.81-.56c-.8-.37-1.42-.93-1.87-1.66-.44-.73-.66-1.62-.66-2.65v-7.15h-2.68v-2.42h5.95v9.73c.04,1.48.73,2.22,2.07,2.22.68,0,1.19-.19,1.53-.57s.51-.98.51-1.8v-3.48h3.26Z"/>
        <path class="cls-2" d="M302.6,39.02h3.27v3.38h7.88v2.42h-7.88v3.92c.04,1.48.73,2.22,2.07,2.22.68,0,1.19-.19,1.53-.57s.51-.98.51-1.8v-1.35h3.26v1.35c0,1.04-.22,1.93-.65,2.66-.43.73-1.05,1.28-1.85,1.66-.8.38-1.73.56-2.81.56s-2.01-.19-2.81-.56c-.8-.37-1.42-.93-1.87-1.66-.44-.73-.66-1.62-.66-2.65v-9.58Z"/>
        <path class="cls-2" d="M322.15,41.91c-.34-.38-.85-.57-1.53-.57-1.34,0-2.03.74-2.07,2.22v9.73h-3.27v-9.58c0-1.03.22-1.92.66-2.65.44-.73,1.07-1.29,1.87-1.66.8-.38,1.74-.56,2.81-.56s2.01.19,2.81.56c.8.37,1.42.93,1.85,1.66.43.73.65,1.62.65,2.66v3.48h-3.26v-3.48c0-.82-.17-1.42-.51-1.8Z"/>
      </g>
      <path class="cls-2" d="M170.46,62.9c.87-1.98,1.5-3.8,1.9-5.47h17c-.4,3.17-1.27,6.3-2.62,9.39l-17.12,39.11h19.97v13.07h-38.04v-13.07l18.9-43.03Z"/>
    </g>
  </g>
</svg>